<svg width="100" height="100" viewBox="0 0 100 100" xmlns="http://www.w3.org/2000/svg">
  <!-- Background Circle -->
  <circle cx="50" cy="50" r="50" fill="#FF6F61"/>

  <!-- Sun -->
  <circle cx="75" cy="25" r="15" fill="#FFE4B5"/>

  <!-- Mountains -->
  <path d="M0 60 L25 40 L50 60 Q60 55 75 60 L100 60 L100 100 L0 100 Z" fill="#2C2C54"/>
  <path d="M20 70 L40 50 L60 70 Q70 65 80 70 L100 70 L100 100 L20 100 Z" fill="#3B3B98"/>

  <!-- Snow Caps -->
  <path d="M20 70 L40 50 L45 60 L35 55 L25 65 Z" fill="#FFFFFF"/>
  <path d="M70 60 L80 55 L85 65 L75 60 Z" fill="#FFFFFF"/>

  <!-- Letter U -->
  <text x="50%" y="50%" dominant-baseline="middle" text-anchor="middle" font-family="Arial, sans-serif" font-size="80" fill="#3B82F6" stroke="#000000" stroke-width="5" paint-order="stroke">
    U
  </text>
</svg>
